<?xml version="1.0" encoding="utf-8"?>
<!-- Generator: Adobe Illustrator 19.2.1, SVG Export Plug-In . SVG Version: 6.00 Build 0)  -->
<svg version="1.1"
	 id="svg1923" inkscape:output_extension="org.inkscape.output.svg.inkscape" inkscape:version="0.46" sodipodi:docname="Blason_Boheme.svg" sodipodi:version="0.32" xmlns:cc="http://creativecommons.org/ns#" xmlns:dc="http://purl.org/dc/elements/1.1/" xmlns:inkscape="http://www.inkscape.org/namespaces/inkscape" xmlns:rdf="http://www.w3.org/1999/02/22-rdf-syntax-ns#" xmlns:sodipodi="http://sodipodi.sourceforge.net/DTD/sodipodi-0.dtd" xmlns:svg="http://www.w3.org/2000/svg"
	 xmlns="http://www.w3.org/2000/svg" xmlns:xlink="http://www.w3.org/1999/xlink" x="0px" y="0px" viewBox="0 0 741 820"
	 style="enable-background:new 0 0 741 820;" xml:space="preserve">
<style type="text/css">
	.st0{fill:#1E1E1E;stroke:#000000;stroke-width:1.6;}
	.st1{fill:#FFFFFF;stroke:#000000;stroke-width:1.6;}
</style>
<sodipodi:namedview  bordercolor="#666666" borderopacity="1.0" gridtolerance="10.0" guidetolerance="10.0" id="base" inkscape:current-layer="svg1923" inkscape:cx="604.71333" inkscape:cy="825.14812" inkscape:pageopacity="0.0" inkscape:pageshadow="2" inkscape:window-height="669" inkscape:window-width="750" inkscape:window-x="184" inkscape:window-y="95" inkscape:zoom="1.5935772" objecttolerance="10.0" pagecolor="#ffffff" showgrid="false">
	</sodipodi:namedview>
<defs>
	
	
		<inkscape:perspective  id="perspective9164" inkscape:persp3d-origin="370.5 : 273.33333 : 1" inkscape:vp_x="0 : 410 : 1" inkscape:vp_y="0 : 1000 : 0" inkscape:vp_z="741 : 410 : 1" sodipodi:type="inkscape:persp3d">
		</inkscape:perspective>
</defs>
<path id="path3733" class="st0" d="M176.6,340.7c0.5,2.6,0,5.1-1.5,7.6c-3.6,2.9-8.1,4.8-13.3,6c-2.1,1.8-2.5,3.9-1.2,5.7
	c4.1,0.2,7.3,1,10,2.4l6.2-1.4l-6.2,1.4c0.8,0.6,1.7,1.3,2.5,2c3.1,4.8,4.9,8.7,5.1,12.1c3-0.1,6-0.7,8.9-2.1c5.8-3.5,11-7,15-11
	c-5.3-2.2-9.8-6.1-13.7-11.5c-0.6-4.1-2.5-8.2-5.7-12.2C180.2,338.8,178.2,339.1,176.6,340.7z"/>
<path id="path3707" class="st0" d="M619.1,84.7c-0.2-0.1-0.2-0.3-0.2-0.3c-0.5-0.7-0.9-1.2-1.4-1.8c-0.2-0.3-0.3-0.4-0.3-0.6
	c-0.6-0.6-1.1-1-1.7-1.6c-2-1.9-4.4-3.5-7.3-4.7c-0.2-0.1-0.5-0.1-0.6-0.3c-2.4-0.9-4.8-1.8-7.7-2.3c-5.3-0.6-10.3,0.7-14.8,3.8
	c-4.5,4.2-5.7,8.2-3.6,11.6c0,0.1,0,0.3,0.2,0.4c0.2-0.1,0.2-0.4,0.3-0.6c1.8-5.1,6.7-7.9,14.7-8.6c3.5,0.1,6.4,0.7,8.5,1.8
	c1.8,0.9,3.2,2.1,4.2,3.4c0.3,0.4,0.5,0.9,0.8,1.3c0.3,0.4,0.5,1.2,0.8,1.9c1.1,8.6-1.1,15.2-6.4,19.9c-6.8,6-15.1,7.9-25.1,5.6
	c-10-2.3-17.8-1.3-23.7,3.2c-0.2,0-0.2,0-0.2,0c-4.5,4.2-8,9.2-10.3,15.1c2.3-5.9,5.7-10.8,10.3-15.1v-0.1
	c-2-9.7-7.3-16.8-15.6-21.8c-5.7-1.9-12.1-2.6-19.2-1.8l0,0c-10,1.5-16,6.2-18,14.2c-1.4,5.7,0.3,10.7,5.1,14.7
	c2.9,1.9,6.2,2.2,10.1,0.4c-6.8-2.1-9.1-5.7-6.7-11.1c1.8-2.2,5-3.5,9.7-3.5c4.4,0.1,7.9,2.1,10.4,5.6c3,6.6,3.9,12.2,2.6,17.1
	c-0.5,1.9-1.4,3.7-2.6,5.3c-13,17.7-20.7,37.2-23.3,58.6c-1.5,16.8-1.7,29.2-0.9,36.9c0.2,2.8,0.6,5.6,0.9,8.6
	c0.8,5.6,1.8,11.9,3,18.6c2,10.4,7.1,25.2,15.6,44.8c4.1,10.3,9.4,18,16.2,23.1c2.1,1.5,3.8,2.8,5.6,4.2c5.4,4.7,8.6,9.7,9.4,14.8
	c-2.4-5.6-6.8-8.9-13.2-10.3c-1.1-0.1-2.1-0.4-3.2-0.4c-5.3-0.7-10.6-0.1-15.7,1.5c-3.3,0.3-6.5,0.3-9.4-0.3
	c-5.7-1.2-10.6-4.1-14.4-8.6c-3.8-6-2.1-12.3,4.8-18.8c-7.6,1.3-12.6,5.1-15.4,11.6c-1.5,6-1.4,11.3,0.8,16
	c5.3,7.3,11.9,10.8,20,10.4c0.6,0,1.1,0,1.7,0c-0.6,0.3-1.1,0.7-1.7,1c-5.3,3.4-11.6,5.9-19.1,7.5c5.1,3.4,11.5,3.5,19.1,0.4
	c-10.7,7.8-14.4,16.6-11,26.5c5,10.5,13,15.7,24.3,14.9h0.2c0.2-0.1,0.3-0.1,0.6-0.1c1.1-0.1,2-0.3,3-0.4
	c9.1-3.4,12.9-7.8,11.6-13.2c-3.5,4.8-8.6,6.9-15,6.3c-7.6-2.3-11.3-7.3-11.2-15.4c0.9-4.8,3-8.5,6.2-11.1c3.8-3.1,9.2-4.8,16.2-4.8
	c16.9,1.6,27.5,7.3,31.6,17.1c3.8,10.4,4.4,19.9,1.7,29c-4.7,12.2-14.4,21.4-29,27.5c-9.1,3.1-17.7,4.2-25.7,4.2
	c-8-0.3-15.6-2.1-22.7-5.4c-8.8-5.7-17.7-11-26.2-16c0-0.1-0.3-0.1-0.3-0.1c-10.9-7.3-20-17.4-27.2-30.3c-3.9-7.3-6.8-14.9-8-22.4
	c0-0.1,0-0.1,0-0.3c-1.1-9.2-2.9-18.5-5.7-27.7l0.5-0.4c4.5,4,9.1,5.9,13.5,5.7c-7.3-6.4-12.4-13.9-15.3-22.3
	c-0.2-0.7-0.2-1.3-0.2-2.2l-0.8,0.1c-3.9,2-8.6,2.9-13.9,2.6c-6-0.6-10.9-2.5-15-5.9c-4.2-3.4-7.4-8.1-9.5-14.2
	c-2.7,1.8-5.4,3.1-8.2,4.1c0,0.3-0.2,0.4-0.3,0.7c-5.6,8.9-13.2,15.5-23,19.8c-2.4,1-5,1.9-7.6,2.6c1.8-1.8,3.2-3.7,4.4-5.6
	c2.6-4.4,3.3-9.1,2.4-13.8c-4.1,1-7.6,2.6-10.6,5c-1.2,0.9-2.3,2.1-3.3,3.2c-6,6.3-6,12.7-0.3,19.6c-4.4,0.6-7.6-0.4-9.8-3.2
	c-0.8-1-1.4-2.1-1.8-3.2c-0.2-0.4-0.2-0.6-0.3-0.9c-2-6-0.2-12,5.4-18c1.1-1.2,2.1-2.2,3.3-3.2c-9.7,3.5-15.3,9.2-16.5,17.4
	c0.8,4,2.4,7.8,5,11.1c0,0.1,0.3,0.4,0.5,0.6c0.9,1.2,2.1,2.5,3.3,3.7c0.2,0.1,0.2,0.1,0.2,0.1c-8-1.8-14.5-6-19.4-13.2
	c-2.6-4.5-2.9-10.3-0.8-17.4c0,0,0,0,0.2-0.1c0.5-2.1,1.4-4.1,2.3-6.4l-11.6,7.9c-4.8,2.5-10.7,3.8-17.5,3.7h-0.2
	c-3.6,0.4-7.1,1.3-10.3,2.5c-5.9,2-10.9,5.6-15.1,10.4c-3.2-2.3-3.9-5.9-2.1-10.1c0.9-1.3,1.8-2.6,2.9-4l-5.6,1.5
	c-12.9,11.1-25.7,16.8-38.6,36.6c-1.8,1.6-2.1,3.4-1.1,4.7c-6.4,0.4-11.3,2.1-14.8,5.6c-5.5,6.3-12.6,11-20,15.4
	c-8,0.8-23.1-12-31.8,3.8c0.3,1.2,1.2,1.9,3.2,2.3c7.9,0.6,11.8,6.6,5.7,11.6c1.4,5.7,5.3,9.2,11.6,10.8c4.2-3.1,7.6-13.5,13.2-2.6
	l7.1-6.4c2.7-3.1,3.6-6.7,2.9-11c0.8,4.2-0.2,7.9-2.9,11l-7.1,6.4c-3,4.1-4.8,8.2-5.6,12.3l3,5.9c4.7-8.6,15.2-3.4,16.9,4.1
	c3.2,2.3,8.2,2.8,14.8,1.5c-3.2-2.9-5.1-6.2-6-9.8c-0.2-0.1-0.2-0.1-0.2-0.1c-0.3-1.6-0.6-3.5-0.6-5.4c0,1.9,0.3,3.8,0.6,5.4
	l1.5-0.3c4.5-3.1,13.6,0.2,18.8,1.7c6.4-6.3,5.9-16.8,6.8-22.8c0.2,0,0.2,0,0.2-0.1c3.2,9.1,10.4,11.3,22.2,6.4
	c-8.9,0.9-10.7-2.2-5-8.9c0.2,0.1,0.3,0.1,0.6,0.1c5.3-2.2,8.2-5.1,8.3-8.8c0-0.4,0-0.9,0-1.3c0.2,0.3,0.5,0.7,0.5,1
	c0,0,0,0,0.2,0.1c2.3,4.8,4.4,6.6,6,5.7c1.1-8.5,3.6-14.7,7.6-18.2c-0.3,10.1,2.4,15.5,8.5,16.6c0.9-5.9,2.1-10.8,3.6-15.1
	c0.2-0.1,0.2-0.4,0.3-0.6c2.1-5.6,5-9.4,8.5-12c0.3,4.7-1.1,9.5-4.2,14.2c6-2.3,10.9-5.9,14.7-10.7c2.9-4.5,4.1-9.5,3.9-14.9
	c6.2,11.3,5.9,21.8-0.8,31.6l18.4-14.2c1.8-1.3,3.8-2.6,5.7-3.8c8-5,16.8-7.6,26.3-8.1c-9.5,0.4-18.3,3.1-26.3,8.1
	c-2,1.2-3.9,2.5-5.7,3.8c1.4,8.5,0,14.7-3.9,18.9c6.8,0.7,11.9-3.4,15.1-12c0.3-0.7,0.5-1.3,0.8-2c-1.7,7.8,0.2,13.2,5.4,16.6
	c11,5,22.5,8.4,34.3,10.1c1.7,0.4,3.3,0.9,4.8,1.5c1.2,0.4,2.3,1,3.5,1.6c1.4,0.4,2.6,1.2,3.8,2c5.6,3.5,10.1,8.4,14.1,14.8
	c1.4-3.5,1.2-7.9-0.5-13c-2.3-3.5-5-6.4-8-9.1c-2-1.5-3.9-2.8-5.9-3.8c2,1,3.9,2.3,5.9,3.8c3,2.6,5.7,5.6,8,9.1
	c1.7,5.1,1.8,9.5,0.5,13c-0.2,0-0.3,0.1-0.2,0.3c-2.4,4.2-3.8,8.6-4.2,13.6c-0.2,0.7-0.2,1.6-0.2,2.3c0,3.1,0.2,6.3,0.6,9.5
	c2.1,4.5,3,8.6,2.6,12.5c-0.5,3.5-2,6.9-4.5,9.8c-0.3,0.3-0.5,0.6-0.9,1c-8.6,7.2-15,14.4-19.5,21.5c-4.5,8.2-7.3,16.6-8.3,24.8
	c-0.6,8.4-0.9,15.5-1.1,21.2c0.2,3.1-0.9,5.7-3.3,7.9c-2.4,2-5.9,3.8-10.7,5c-4.2,1-8.2,1-11.5,0c-3.8-1.3-6.4-3.5-7.9-6.7
	c-0.6-0.9-0.9-2.2-1.2-3.4c-1.1-5.7,1.2-11.4,7-17c-6,1.2-11,4-15,8.2c-2.7,5.6-3.5,10.7-2.1,15.2c0.2,0.6,0.5,1,0.6,1.6
	c2.4,5.7,5.9,9.8,10.4,12.5c8.5,3.1,17.4,3.5,26.2,1c0.2,0,0.5,0,0.6-0.1c4.5-2.2,8.3-4.8,11.5-7.8c0.2-0.3,0.5-0.4,0.6-0.7
	c0.2-0.1,0.3-0.4,0.5-0.6c1.5-1.6,2.9-3.4,3.9-5.1c1.2-2.2,2.3-4.5,3-7c-0.8,2.5-1.8,4.8-3,7c-2.6,7.2-4.1,13.8-4.8,19.8
	c0,0,0,0,0,0.1c3.8-4.4,7.7-7.5,11.5-9.1c2.1,10,2.4,17.9,0.9,23.4c-2.1,7-4.7,12.3-7.7,15.2c1.4,0.3,2.7,0,4.1-0.3l0,0
	c3.9-1.2,8.2-4.5,12.4-10.4c3.9-4.8,5.7-10.8,5.6-17.7c-0.2-3.8-0.8-7.2-1.7-9.8c-0.3-0.7-0.6-1.5-0.9-2.2c-0.6-1-1.2-2-2-2.8
	c0.8,0.7,1.4,1.8,2,2.8c0.5,0.7,0.9,1.3,1.5,2.1c4.8,5.7,10.6,8.6,17.1,8.5c0.3,0,0.6,0,1.1-0.1c0.6-0.1,1.1-0.1,1.7-0.1
	c0.2,0,0.2,0,0.3,0c3.8-0.6,7-1.5,9.5-2.8c-3.8,0.1-7.3-0.3-10.3-1.3c-4.2-1.2-7.9-3.5-10.7-6.7c2.9,3.2,6.5,5.6,10.7,6.7
	c3,1,6.5,1.5,10.3,1.3c4.1-2.1,6.5-5.3,7.9-9.4c-1.4,4.1-3.8,7.3-7.9,9.4c-2.6,1.3-5.7,2.2-9.5,2.8c-0.2,0-0.2,0-0.3,0
	c-0.6,0-1.1,0-1.7,0.1c6.5,12.5,19.4,19.8,38.4,22.1c2,0.1,4.2,0.4,6.4,0.6c-2.1-0.1-4.4-0.4-6.4-0.6c-10,13.3-16.3,26.4-19.4,39.7
	c-2.3,7.6-4.1,15.7-5.1,23.9c-0.8,0.9-1.7,1.6-2.7,2.5c-0.8,0.4-1.4,0.7-2.1,1c-2.1,0.9-4.8,1.5-8,1.8c-3.3-0.3-6.5-1.8-9.2-4.4
	c-3.5-0.4-7.4-0.4-11.8,0c-2.3,0.9-3,2.3-2.3,4.4c2.6,0.7,4.4,2.6,5.4,5.6c0.8,3.1,0.5,5.9-0.6,8.6c-0.2,0.3-0.2,0.4-0.3,0.7l0,0
	c-1.5,4.2-1.4,8.2,0.3,11.6c8.6-1.6,13.3-6,14.2-13.3c0.8,4.2,2.7,6.4,5.6,6.9c0.2,0,0.2,0,0.5,0c2.4-5,6.4-9.1,11.5-12.2
	c0.6-0.6,1.4-1,2.1-1.3c0.9-0.4,1.8-0.9,2.6-1.2c-0.8,0.3-1.7,0.7-2.6,1.2c-0.8,0.3-1.5,0.7-2.1,1.3c-5.1,3.1-9.1,7.2-11.5,12.2
	l1.7,6c2.6-0.7,5.3-1,7.9-0.9c3.2,1.8,5.4,4,7.3,6.4c0.2,0,0.2,0.1,0.3,0.1c0.9,1.5,1.8,2.9,2.3,4.7l0.6,0.4c7.3-1.5,10-4.4,7.9-8.6
	c-0.2,0-0.2-0.3-0.3-0.4c-0.3-0.4-0.6-0.9-0.9-1.3l-4.2-4.1l4.2,4.1c0.3,0.4,0.6,0.9,0.9,1.3c0.2,0.1,0.2,0.4,0.3,0.4l0.6-0.4
	c2.9-1.6,5.4-3.2,7.4-5.1c2.6-2.5,4.4-5.3,5.4-8.4c0.3-4.5-2-7.6-6.7-9.2c4.7,1.6,7,4.7,6.7,9.2c-1.1,3.1-2.9,5.9-5.4,8.4l0.5,0.6
	c0,0.3,0.3,0.7,0.5,1.2c1.1,2,2.9,3.4,5.6,4.2c4.8-1.6,8-3.5,9.7-5.9c-0.8-3.2,0.3-6.2,3-8.6c2.6-1.8,5.4-2.8,8.3-2.8
	c1.8,0,3.6,1,5.3,2.9c0,0,0,0,0.2,0c2.3-0.4,3.3-1.5,2.9-2.9c0.5-2.8,0-5.4-0.8-8.1c-0.2-0.3-0.2-0.6-0.3-0.7c-0.6-1.3-1.2-2.6-2-4
	c-0.3-0.3-0.6-0.7-0.9-1c0-0.1-0.2-0.4-0.3-0.6c-0.2-0.1-0.2-0.1-0.2-0.1c-4.2-3.5-9.1-6-14.1-7.5c5,1.5,9.8,4,14.1,7.5
	c0,0,0,0,0.2,0.1l0,0c0.2,0.1,0.3,0.3,0.3,0.6c0.3,0,0.5,0.3,0.8,0.4c1.1,0.4,1.8,1,2.9,1.5c0.5,0.3,0.9,0.4,1.4,0.6
	c3.5,1.3,9.7,0.9,18.6-1.5c-7.7-2-12.1-5-13.5-8.8c-1.8-4-2.6-8.2-2.3-12.7c0-0.4,0-1,0-1.9c-0.2-0.7-0.3-1.8-0.5-2.8
	c-1.2-1.5-3.8-3.1-7.9-4.7c4.1,1.6,6.7,3.2,7.9,4.7c0.9,0.7,1.8,1.5,2.7,2.3c3.2,3.5,6,8.5,8.2,15.1c4.5-6.6,6-13.5,4.4-20.5
	c0-0.1,0-0.1-0.2-0.3c-0.2-0.7-0.3-1.5-0.6-2.2c-0.6-2.6-2-4.8-3.9-7c-2-2.2-4.8-4-8.2-5.6c3.3,1.6,6.2,3.4,8.2,5.6
	c2,2.2,3.3,4.4,3.9,7c0.3,0.7,0.5,1.5,0.6,2.2c0.2,0.1,0.2,0.1,0.2,0.3c5.1,2.2,10.1,2.8,15.1,1.6c5.6-2.3,9.7-5,11.9-8.1
	c-3.5,0.6-6.7,0.6-9.4,0.6c-0.2-0.3-0.2-0.3-0.2,0c-4.7-0.6-8.6-2-12.1-4.2c-0.2-0.1-0.5-0.4-0.6-0.6c-0.2-0.1-0.2-0.1-0.3-0.1l0,0
	c-1.2-1-2.1-2.1-2.9-3.1c-2.6-3.1-3.8-6.6-3.6-10.8l0.3-0.6c7.6,1.9,14.1,7.2,19.7,15.8c3.3-7.2-2-16.8-16.2-29.2
	c5.7,1,10.1,2.9,12.9,6c2.4-2.3,2.7-5,1.4-7.9c-2.7-6.3-7.4-10.7-13.8-13.3c6.7,2.6,13.2,4.4,19.7,5.6c1.8,0.4,3.6,0.7,5.6,0.9
	c10.4,0.1,16.9-3.1,19.1-9.5c-2.9,0.9-5.6,1.6-7.9,2.2c-0.2,0-0.3,0-0.5,0c-0.2,0-0.2,0-0.3,0c-5.9,1-10.4,0.7-13.9-0.9
	c-0.3-0.1-0.5-0.4-0.8-0.4c-6.4-3.1-10.6-7.5-12.7-13.3c4.2-3.1,8.9-3.8,13.9-2.2c6.2,2.8,10.6,6.4,12.9,11.1
	c2.9-7.2,0.5-13.5-7.1-18.9c-0.5-0.4-0.9-0.6-1.4-0.9c-8.6-3.8-17.8-4.2-27.5-1c10.1-4.1,17.7-9.4,22.7-15.7c1.8-3.8,1.4-7-1.2-9.8
	c-5.6,6.7-13.9,10.8-24.8,12.7c-7,0-12.6-1.2-17.1-3.8c9.1-2.2,13.9-7.5,14.5-15.4c-0.5,0.3-0.6,0.6-0.9,1c-0.3,0.3-0.6,0.4-1.1,0.9
	c-4.2,3.7-9.2,5.6-15.1,5.6c-0.2,0-0.2,0-0.3,0c-0.5,0-0.8,0-1.1,0c-1.4-0.1-2.9-0.3-4.2-0.6c-7.3-3.8-11.3-8.9-12.4-15.7
	c4.4,5.1,10.3,7.9,17.2,8.2c4.2-0.4,7.3-1.8,8.9-4c0.3-0.4,0.6-0.9,0.8-1.5c-2.7,0.3-5.3,0-7.7-0.7c-9.7-2.9-17.5-13.3-24-30.9
	c0,0,0-0.3,0-0.4c0,0,0,0,0,0.1c0,0.1,0,0.1,0.2,0.3c5.3,8.5,12.1,12.3,19.8,10.8c-3.6-4-6.7-9.1-8.9-15.2
	c-2.4-6.2-3.9-13.3-4.7-21.5c-0.3-2.5-0.5-5.1-0.6-7.9v-5.4c0.9,0.9,1.8,1.8,2.9,2.8c1.2,1,2.4,2.2,3.6,3.2
	c11.3,9.1,25.4,13.2,42.3,12.5c0,0,0.3,0,0.5,0c0.3,0,0.5,0,0.8,0c0.2,0,0.3,0,0.3,0c0.3,0,0.6,0,0.8,0c20.1,0.3,38-6,53.4-19.2
	c17.7-14.8,26.6-37.2,26.8-66.8c0.6-5.1,2.6-8.1,6-8.8c2.7-0.4,6.2,0.4,10.7,3.1c1.8-7-2.1-11.1-11.6-12h-0.2
	c-0.2-0.1-0.5-0.1-0.6-0.1c-6,1-10.4,3.8-13.2,8.4c-0.5,0.7-0.9,1.5-1.2,2.3c0.3-0.9,0.8-1.6,1.2-2.3c2.7-4.5,7.1-7.3,13.2-8.4
	c0.2-0.1,0.5-0.1,0.6-0.1c14.4-15.4,20-26.2,16.6-32.4c-2.3-4.8-5.7-8.2-10.7-9.8c6.8,7.5,4.1,14.1-8.2,19.6
	c-11.2,3.5-18.1,12.3-20.7,25.9c-3-11.3-7.4-19.9-13.2-25.6c-7.1-6.7-14.1-17.1-21-30.8c-3.9-9.2-5.7-17.6-5.6-25.3
	c0-1.9,0.3-3.7,0.6-5.4v-0.1c1.1-5,3.3-8.4,6.8-10.5c4.7-2.9,10.3-2.9,16.5-0.1c2.4,2.6,2.3,5-0.5,7c6.3-0.6,8.9-3.1,7.4-7.6
	c-0.8-1.2-1.7-2.2-2.6-3.2c-5.3-5.1-13.2-6.9-23.6-4.8c-0.2,0.1-0.3,0.1-0.6,0.1c-0.3,0.1-0.8,0.4-1.1,0.6
	c-6.5,2.6-10.3,8.1-11.8,16.1l0,0c-4.7-17.3-6.3-35.9-4.8-56c0.9-10.7,5.4-21.5,13.9-32.2c10.7-10,19.5-14.9,26.9-14.7
	c7.3,0.3,14.1,2.5,20.7,6.7c6.5,4.2,9.2,11.9,8.5,22.6c-0.9,6.9-5.3,12.2-13,16c-0.5,0.1-0.6,0.4-0.9,0.6c-1.4,0.6-3,1.3-4.8,1.9
	c-0.8,0.1-1.5,0.4-2.3,0.6c-3.5,1-7.1-0.3-10.6-3.4c-2.3-2.8-2.7-6.9-1.7-12.3c-6.8,7.5-7.3,14.5-1.2,21c4.8,5.3,11.2,6.2,18.9,3.1
	c1.7-0.7,3.5-1.6,5.4-2.8c-2,1.2-3.8,2.1-5.4,2.8c-8.5,11-4.7,17.6,11.5,19.2c1.7,0.1,3.5,0.3,5.4,0.3c-12.2-1.5-15.3-5.4-9.1-11.6
	c0.9-1,2-2.1,3.5-3.1c1.1-0.9,2-1.8,3.2-2.5c19.2-12.3,26.3-28.3,21.5-47.8c-4.4-12.2-12.6-21.7-24.8-28.1c-2-1-4.1-1.9-6.4-3.1
	c-4.4,0-8.5,0.1-12.4,0.6c-3.6,0.7-6.4,1.9-8.5,3.4c2.1-1.5,4.8-2.6,8.5-3.4c3.9-0.4,8-0.6,12.4-0.6c2.6,0.1,5.3,0.3,8,0.4
	c6.3,0.3,11.8-1.8,16.2-6c7.4-7.9,11.9-16.7,13.5-26.5C624.1,97.8,622.6,91.3,619.1,84.7z"/>
<path id="path3723" class="st0" d="M199.4,104.1c-4,1.8-5,3.4-4.4,7c2.4,3.9,6.5,7.3,12.4,10.1c3.3,6.1,3.6,11,0.7,14.6L208,136
	c9.2,4.1,27.6,27.4,26.6-2.2c-1.9-8.4-7.6-18.6-12.2-27.1c-2.1-3.5-3.1-7.8-3-12.9c-1.8-2-4.6-3.1-7.7-3.4
	C207.2,97.4,213.3,102.2,199.4,104.1z"/>
<path id="path3709" class="st0" d="M440,272.2l-0.3-1c8.2-12.3,14.2-11.9,18.3,1c3.9-7.3,3.2-14.8-2.4-22.4
	c9.1,5.7,19.2,7.9,30.7,6.6c7.9-2.3,13-6.2,15.6-11c-3.3,2.3-8.6,3.2-16,2.8c-9.1-0.9-17.1-3.7-23.6-8.6c-0.3,0-0.5-0.1-0.5-0.3
	c-4.8-3.7-8.9-8.2-12.4-13.8c20-9.1,25.4-6.2,16.5,8.6c0,0.1,0,0.1-0.2,0.3c9.4-4.8,14.2-9.5,14.2-14.1c0-4.5-5.1-11-15.4-19
	c-5.6-1.5-8.8-4.5-9.8-9.4c1.1,4.8,4.2,7.9,9.8,9.4c0.9,0.1,1.7,0.4,2.6,0.4c8,0,13.8-2.9,17.2-8.8c-3,1.5-5.7,2.6-8.2,3.1
	c-0.2,0-0.2,0-0.2,0.1c0,0-0.2,0-0.3,0c-0.3,0.1-0.6,0.1-0.6,0.3c-2.6,0.3-4.8,0.1-6.7-0.4c0-0.1-0.2-0.1-0.3-0.1
	c-5.4-2.9-9.1-7.3-10.3-13.6c4.1-5.3,9.7-2.5,16.5,8.5c4.4-9.4,2-16.6-7.4-22c-5.4-3.1-9.7-6.2-12.9-9.4l-0.3-0.1
	c-0.3-0.3-0.5-0.6-0.8-0.9c-0.9-1-1.7-2.1-2.4-3.2c0.8,1.2,1.5,2.2,2.4,3.2c0.3,0.3,0.5,0.6,0.8,0.9l0.3,0.1
	c2.6,2.5,5.6,4.1,9.1,4.7c1.1,0.3,2.3,0.4,3.3,0.3c3.5,0,6.4-1.5,8.8-4.1c3-3.7,3.8-7.3,2.1-11.3c-2,4.5-5.3,6.9-9.7,7
	c-3.5,0.1-6-0.9-8.2-3.1c-0.6-0.9-1.2-1.8-1.7-2.6c-2.3-4.1-4.1-10-5.7-17.9c-0.9-4.7-4.1-8.9-9.4-12.9c8.2-1,12.6-3.7,13.2-8.1
	c-3.9,1.9-7.9,2.6-11.9,1.8c-3.3-6.2-8.6-11-16-14.2c-4.1-1.3-8.5-1.6-13.2-0.9c-0.8,0.1-1.7,0.4-2.4,0.4c0.8,0,1.7-0.3,2.4-0.4
	c49.5,0.4-2.6-15.5-22.1-9.1c-7.3,3.2-18.4,5.3-33.6,6.4c-0.5,0.1-0.9,0.1-1.2,0.3h-0.2c-23.6,3.1-41.3,7.2-52.9,12.6
	c-3,1.3-5.6,2.6-7.7,4.1c0.3,4,2,6.3,5.1,7c0,0.1,0,0.1,0,0.1l0,0l5.4-3.1v-2.5v2.5l-5.4,3.1l0,0c-0.6,3.7-0.6,6.9-0.2,9.7
	c4.7,8.9,11.8,15.4,21.3,19.2c0,0,0,0,0.2,0c0,0,0,0,0.2,0.1c4.2-0.1,8.3-0.1,11.9,0.1c5,0.3,9.5,0.9,13.5,1.6c0,0,0,0,0.2,0
	c3.9,0.7,7.3,1.8,10.3,3.1c5.3,2.3,9.7,5,13,7.9c1.7,1.5,3,3.1,4.2,4.7c3.6,5.7,3.8,10.4,0.2,14.1c-0.3,0.1-0.5,0.3-0.6,0.4
	c-2.1,1.6-5.6,2.8-10.9,2.8c-9.5,0-17.4-1.2-23.3-3.4c-0.8-0.3-1.7-0.4-2.6-0.7c-4.1-1.2-9.1-1.6-14.7-1.5c-1.7,0.1-3.6,0.3-5.4,0.4
	c-2.7,2.9-2.6,5.9,0.2,8.8c-3.2,5.7-9.4,7.3-18.4,4.5c3.3,5.6,7.4,8.2,12.6,7.9c4.5-0.6,9.4-2.2,13.9-5.4c0.3-0.1,0.6-0.3,0.9-0.4
	c-0.3,0.1-0.6,0.3-0.6,0.7c-4.7,4.5-7.7,8.8-9.1,12.5c0,0,0,0,0,0.1c-0.2,0-0.2,0-0.2,0.1c-0.6,1.9-0.9,3.7-0.5,5.3
	c0.5-1.8,1.4-3.4,2.7-4.8c3.9-4.2,11-7,21.3-8.1c-0.5,4-3.9,8.1-10.1,12.3c12.1-1.6,20.3-5.7,24.7-12c1.1,6.3,4.5,9.5,10.6,10
	c-2-4.7-1.4-8.6,1.7-11.6c4.4,8.1,11.8,13,22.5,14.5c-5.4-4.2-8-9.8-7.6-16.8c4.7,4.4,8.6,6.3,11.9,6c-0.6-6,1.4-11.4,5.7-16.3
	c1.5,5.6,7.9,8.8,19.1,9.4c-8.3-7-11.9-14.2-11.5-21.5c0.6-7.5,1.8-13.2,3.5-17.3c4.5,0.6,7.6,4.1,9.4,11c1.2-12-3.6-19.9-14.7-23.9
	c3.2,0.7,6.4,1.3,9.4,1.3c2,0,3.8,0,5.7-0.3c6.4-0.9,9.8-6.2,9.8-15.8c0-1.9,0-3.7-0.5-5.1c0-0.1,0-0.1,0-0.1
	c-1.1-4.4-3.8-7.3-8-8.9c-0.2-0.1-0.5-0.1-0.6-0.1c0-0.1-0.3-0.1-0.3-0.1c-0.9-0.3-1.7-0.4-2.7-0.6c-0.8-0.1-1.7-0.1-2.6-0.3
	c-5.3,0.1-8.9,1.5-10.7,4.4c1.8-2.9,5.4-4.2,10.7-4.4c0.9,0.1,1.8,0.1,2.6,0.3c1.1,0.1,1.8,0.3,2.7,0.6c0,0,0.3,0,0.3,0.1
	c0.2,0,0.5,0,0.6,0.1c4.2,1.6,7,4.5,8,8.9c0,0,0,0,0,0.1c0.5,1.5,0.5,3.2,0.5,5.1c0,9.7-3.5,14.9-9.8,15.8c-2,0.3-3.8,0.3-5.7,0.3
	c-3,0-6.2-0.6-9.4-1.3c11,4,15.9,11.9,14.7,23.9c-1.8-6.9-4.8-10.4-9.4-11c-1.7,4.1-2.9,9.8-3.5,17.3c-0.5,7.3,3.2,14.5,11.5,21.5
	c-11.2-0.6-17.5-3.8-19.1-9.4c-4.4,4.8-6.4,10.3-5.7,16.3c-3.3,0.3-7.3-1.6-11.9-6c-0.5,7,2.1,12.6,7.6,16.8
	c-10.7-1.5-18.1-6.4-22.5-14.5c-3,2.9-3.6,6.9-1.7,11.6c-6-0.4-9.5-3.7-10.6-10c-4.4,6.3-12.6,10.4-24.7,12
	c6.2-4.2,9.7-8.4,10.1-12.3c-10.3,1-17.4,3.8-21.3,8.1c3.6,1.9,5.6,4,5.9,6c0.3,2.5-0.9,4-3.5,4.5c-2.1-0.7-4.2-1.3-6.4-1.8
	c-7.7-1.8-15.3-1.9-22.8-0.7c-0.3,0-0.5,0-0.6,0.1c-0.6,0-1.2,0-1.7,0.1c-7.4-2.9-11-7.9-11.5-14.9c-6.4,2.8-9.4,6.9-8.5,12.5
	c4.1,8.8,11.8,13.2,23.4,13.6c0.2,0,0.5,0,0.8,0c-0.3,0-0.6,0-0.8,0c-15.6,2.5-25.3,9.1-29,19.8c-4.4,7-10.7,6.3-18.9-2.2
	c0.5,1.2,1.2,2.5,1.8,3.5c2.1,3.8,4.5,7.2,7.1,10.3c0,0,0,0,0.2,0c3.5,4,7.3,7.2,11.6,10c-0.2-5.4,1.7-9.7,5.4-12.9
	c0.8-0.7,1.5-1.3,2.6-1.9c-1.1,0.6-1.8,1.2-2.6,1.9c-3.8,3.2-5.6,7.5-5.4,12.9c-0.5,5.7-3,10-7.9,12.9c-4.8,3.1-8.9,2.8-12.4-0.4
	c-0.5-0.4-0.8-0.9-1.2-1.2c-1.1-1.5-1.4-3.1-0.5-5l-4.2-1.5c-1.1,1.2-1.8,2.6-2.4,4.4c-0.5,2.8-0.5,5.3,0,7.3
	c0.8,3.2,2.6,5.6,5.3,7.5c1.1,0.6,2.3,1.2,3.8,1.8c1.8,0.4,3.6,1,5.3,1.3c0.3,0.1,0.8,0.1,1.1,0.3c0.8,0.1,1.7,0.1,2.6,0.3
	c2,0.1,3.9,0.1,5.9-0.1c1.4-0.3,2.9-0.6,4.4-1c0.3-0.1,0.6-0.3,0.9-0.3c0.8-0.4,1.4-0.9,2.3-1.2c1.8-1,3.8-2.3,5.4-4
	c2.4-2.3,4.4-5.1,6.2-8.6c2.4-5,5.4-8.2,9.2-9.7c-3.8,1.5-6.8,4.7-9.2,9.7c-1.8,3.5-3.8,6.3-6.2,8.6c-1.7,1.6-3.6,2.9-5.4,4
	c-0.9,0.3-1.5,0.7-2.3,1.2c-0.3,0-0.6,0.1-0.9,0.3l-0.3,0.4c-1.4,0.6-2.7,1-3.9,1.3c-0.3,0.1-0.6,0.1-0.6,0.1c-2,0.1-3.8,0-5.4-0.7
	c-0.9-0.1-1.8-0.1-2.6-0.3c-0.3-0.1-0.8-0.1-1.1-0.3c0.2,0.1,0.2,0.4,0.3,0.6c0,0.3,0.3,0.7,0.5,1c0,0.1,0.2,0.4,0.3,0.6
	c0,0.1,0,0.3,0.2,0.4c2.6,4.2,6.2,6.9,10.7,7.9c2.9-2,5.7-4,9.1-5.6c2.7-1.5,5.7-2.5,8.9-3.5c9.4-2.5,15.3-7.6,17.4-15.5
	c-2.1,7.9-8,13-17.4,15.5c-3.2,1-6.2,2-8.9,3.5c-3.3,1.6-6.2,3.5-9.1,5.6c-3.3,2.6-6.4,5.7-9.2,9.2c-1.1,1.3-2,2.6-2.9,4
	c-1.8,4.2-1.1,7.8,2.1,10.1c4.2-4.8,9.2-8.4,15.1-10.4c3.2-1.2,6.7-2.1,10.3-2.5h0.2c6.8,0.1,12.7-1.2,17.5-3.7l11.6-7.9
	c-0.9,2.3-1.8,4.4-2.3,6.4c-0.2,0.1-0.2,0.1-0.2,0.1c-2.1,7.2-1.8,12.9,0.8,17.4c4.8,7.2,11.3,11.4,19.4,13.2c0,0,0,0-0.2-0.1
	c-1.2-1.2-2.4-2.5-3.3-3.7c-0.2-0.1-0.5-0.4-0.5-0.6c-2.6-3.4-4.2-7.2-5-11.1c1.2-8.2,6.8-13.9,16.5-17.4c0.5-0.1,0.9-0.3,1.2-0.4
	c-0.3,0.1-0.8,0.3-1.2,0.4c-1.2,1-2.3,2-3.3,3.2c-5.6,6-7.4,12-5.4,18c0.2,0.3,0.2,0.4,0.3,0.9c0.5,1.2,1.1,2.2,1.8,3.2
	c2.3,2.8,5.4,3.8,9.8,3.2c-5.7-6.9-5.7-13.3,0.3-19.6c1.1-1.2,2.1-2.3,3.3-3.2c3-2.3,6.5-4,10.6-5c0.9,4.7,0.2,9.4-2.4,13.8
	c-1.2,1.9-2.6,3.8-4.4,5.6c2.6-0.7,5.1-1.6,7.6-2.6c9.8-4.2,17.4-10.8,23-19.8c0.2-0.3,0.3-0.4,0.3-0.7c-0.2,0.1-0.5,0.1-0.5,0.3
	c-0.2,0-0.2,0-0.2,0c-4.4,1.3-8.6,1.9-12.9,1.3h-0.2c0,0,0,0,0.2,0l0,0c2.7-2.1,5-4.2,6.8-6.6c0.3-0.3,0.5-0.6,0.8-0.9
	c0.9-1.3,1.7-2.6,2.3-4c1.2-2.5,2-5.1,2.3-7.9c-0.3,2.8-1.1,5.4-2.3,7.9c-0.6,1.3-1.4,2.6-2.3,4c-0.3,0.3-0.5,0.6-0.8,0.9
	c-1.8,2.3-4.1,4.5-6.8,6.6l0,0c-0.2,0-0.2,0-0.2,0h0.2c4.2,0.6,8.5,0,12.9-1.3c0,0,0,0,0.2,0c0-0.1,0.3-0.1,0.5-0.3
	c2.7-1,5.4-2.3,8.2-4.1c-0.3-2.6-0.5-5.1-0.2-7.8c0.5-6.4,3-12,7.9-16.8c-4.8,4.8-7.4,10.4-7.9,16.8c-0.3,2.6-0.2,5.1,0.2,7.8
	c2.1,6.2,5.3,10.8,9.5,14.2c4.1,3.4,8.9,5.3,15,5.9c5.3,0.3,10-0.6,13.9-2.6c0.2-0.1,0.5-0.3,0.8-0.4h0.2c0-0.1,0.3-0.3,0.5-0.4
	c0.3-0.1,0.9-0.4,1.1-0.6c-0.5-0.1-1.1-0.3-1.7-0.4c-7-1.2-12.7-4.4-17.8-10c-2.9-3.7-2.6-7.3,0.6-11.1l0,0l0,0
	c1.8-2.1,3.2-4.2,4.5-6.6c2-3.8,3.3-7.9,3.9-12.3c-0.6,4.4-2,8.5-3.9,12.3c-1.4,2.3-2.7,4.5-4.5,6.6c7.4-1.6,12.9-4.5,16.6-8.6
	c0.3-0.3,0.6-0.7,0.9-1c0,0,0,0,0.2-0.1c0.2-0.3,0.5-0.6,0.6-0.9c0,0,0,0,0.2,0h-0.2c0.2-0.1,0.2-0.1,0.3-0.3
	c2.6-3.5,4.1-7.2,4.7-11.3c0.2-0.6,0.2-1,0.2-1.6c0-0.3,0-0.4,0-0.7l0,0c0-0.1,0-0.4,0-0.6c0-1.2,0-2.3-0.2-3.5c-0.2,0-0.2,0,0,0
	c-0.3-1.8-0.6-3.5-1.4-5.1c0.8,1.6,1.1,3.4,1.4,5.1c-0.2,0-0.2,0,0,0c0.2,1.2,0.2,2.3,0.2,3.5c0,0.1,0,0.4,0,0.6l0,0
	c0,0.3,0,0.4,0,0.7c0,0.6,0,1-0.2,1.6c-0.6,4.1-2.1,7.8-4.7,11.3c-0.2,0.1-0.2,0.1-0.2,0.3c-0.2,0-0.2,0-0.2,0
	c-0.2,0.3-0.5,0.6-0.6,0.9c-0.2,0.1-0.2,0.1-0.2,0.1c0.2,0.1,0.3,0.1,0.5,0.1c0.5,0.1,0.9,0.4,1.4,0.4c2.6,0.9,5.4,1.5,8.3,1.8
	c5.7,0.4,11.6-0.3,18-2.5c6.5-1.6,11.3-4.8,14.1-9.5c-4.5,2.3-10,3.2-16,2.6c-5.3-0.6-9.2-2.9-11.9-7.3l0.3-0.1h0.2h-0.1
	c0,0,0,0-0.3,0.1 M414.5,123.6c-2.4,1.2-4.7,1.6-6.4,1.5C409.8,125.2,412.1,124.8,414.5,123.6c0.3-0.1,0.5-0.3,0.6-0.3
	c2.3-1.2,4.5-2.8,6.8-5c-2.3,2.2-4.5,3.8-6.8,5c2.3,1.5,4.1,3.1,5.9,5.4c-0.6,3.4-1.8,5.6-4.1,7.2c2.3-1.6,3.5-3.8,4.1-7.2
	c-1.8-2.3-3.6-4-5.9-5.4C414.9,123.3,414.8,123.5,414.5,123.6z M360,110.7c2.3,0,4.2,0.3,6.4,1c0.3,0.1,0.8,0.4,1.2,0.6
	c5.4,3.2,10.1,6.9,14.1,11l5.9-2.2l-4.5,0.8l-13.4,2.9c-0.6,0-1.1,0-1.5,0.1c-1.5,0.1-2.9,0.1-4.2,0c-0.8-0.1-1.7-0.1-2.4-0.1
	c-3-1.3-4.7-3.4-5-6.3C356.1,115.7,357.3,113.1,360,110.7c-0.5,0-1.2,0-1.8,0c-1.4,0.1-2.9,0.3-4.4,0.7c0-2.9,1.7-5.3,5.3-6.9
	c-3.6,1.6-5.3,4-5.3,6.9c1.5-0.4,3-0.6,4.4-0.7C358.8,110.7,359.6,110.7,360,110.7z M391.6,172.3c-0.9-3.5-2.3-7-4.2-10.7
	C389.4,165.2,390.7,168.7,391.6,172.3c0.8,5.6-2.7,10.7-10.4,15.1C388.9,183,392.4,177.8,391.6,172.3z M379.5,150.7
	c-3.9-4-8.6-6.7-13.9-8.8c-4.5-1.5-9.1-1.8-13.9-1c4.8-0.7,9.4-0.4,13.9,1C370.9,144,375.6,146.8,379.5,150.7z"/>
<path id="path3715" class="st0" d="M334.3,159.2l1.4-10.4c-3.6-0.3-7.7-0.3-11.9-0.1c-0.2-0.1-0.2-0.1-0.2-0.1c-0.2,0-0.2,0-0.2,0
	v0.1v0.1l5.1,11l2.1,3.1l0,0L334.3,159.2z"/>
<path id="path3717" class="st0" d="M330.5,165.1l5,8.4c9.4-0.4,18.8-0.3,28.4,0.6c5.7,0.4,10.1,2.5,13,6.2c3.6-3.7,3.5-8.4-0.2-14.1
	c-1.2-1.6-2.6-3.2-4.2-4.7c-6.4-1.5-12.7-2.2-18.9-2.2c-6,0.1-12.4,0.1-19.4,0l-3.6,3.7l0,0l-2.1-3.1c-8.6,0-16.8,0-24.5-0.1
	c-4.8-0.4-9.5-4.1-14.1-10.7c-2.1,2.5-2.9,5.9-2.3,9.7c2.1,6.4,6.2,10.5,12.2,12.2c8,2.5,16.3,3.7,25.3,3.4c0.3-0.1,0.6-0.1,0.9-0.1
	L330.5,165.1z"/>
<path id="path3719" class="st0" d="M335.5,173.4l-5.7-8.4l-3.6,8.9l-1.2,3.8c5.6-0.1,10.6,0.3,14.7,1.5L335.5,173.4z"/>
<path id="path3721" class="st0" d="M212.2,91.7c-10.5-12.9-41.8-6.9-35.6,11.2c9.3-6.8,16.7-5.1,22.4,2.1
	C209.1,108.1,218.8,97.9,212.2,91.7z"/>
<path id="path3943" class="st0" d="M216.1,136.3c-6.6-7.1-10.5-22.7-22.9-22.5c-3.6,1.2-5.1,2.7-4.9,4.8c-0.1,0.1-0.1,0.1,0,0.2
	c5.9,4.4,11,13.9-0.3,13.1c-2.6-0.2-3.3,1.6-3.6,3.8c0,8.6,6.3,14.7,14.9,11.1c-1.4,1-2.5,2.1-3.9,3.3c-0.2,0-0.2,0-0.1,0.2
	c5.9,3.7,12.6,4.7,20.1,3.1c-7.6,1.6-14.2,0.6-20.1-3.1c0-0.1,0-0.1,0.1-0.2c-2-1.3-4.8-2.2-8.4-2.4c-4.2,0.8-7.5,2.2-9.9,3.9
	c-1.2,1.1-1.8,1.8-1.7,2.4c-0.1,0.5,0.4,0.7,1.2,0.9c4.3-0.7,7.6,0,9.9,2.3c2.7,5,1.2,9.8-4.9,13.7c-1.3,3.1-0.8,5.7,1.1,7.6
	c3.1,1.5,5.9,2.1,8.4,1.5c2.7-3.7,4.3-7.2,4.9-10.6c2,3.6,2.4,7,1.2,10.2c5.2,1.6,9.4,0.7,12.6-2.8c0.5-0.5,1.1-1.3,1.6-2.1
	c-0.5,0.8-1,1.6-1.6,2.1c-2.5,3.5-3.8,7.1-4,10.8c0.6-0.2,1.2-0.3,1.8-0.3c6.2-1.3,11.2-0.3,14.4,2.4l-0.1,0.7l-13.7,1.2
	c0.7,4.6,3.5,7.8,8.3,9.5c4.8,1.6,11.5,2,20.1,1c-8.6,1-15.3,0.6-20.1-1c-6.8,7-8.9,14.6-6.5,22.6c1.4-2.6,3.7-4.5,6.8-5.2
	c0.3-0.2,0.6-0.2,0.9-0.2c0.1-0.2,0.4-0.2,0.6-0.2c0.2,0,0.3,0,0.3,0c5.9-1.2,14.6,0.2,26,4c-6.7,4.8-15.2,5.3-25.3,1.8
	c6.1,8.6,15.5,11,28.3,7.7l0.2,0.4c-7.5,3.1-13.4,7.6-17.9,13.8l0,0.1c-0.1,0.2-0.3,0.3-0.3,0.3l0,0.1c0.1-0.2,0.4-0.2,0.4-0.2
	l0.2,0c9-3.8,18.9-4.9,30.1-3.6c-12,2.8-19.5,5.9-22.7,9.6c-1.9,2.1-2.2,4.3-1.1,6.9c9.8-4.8,21.4-4.3,34.5,1.4l-0.1,0.3l-0.2,0.8
	c-11.3-0.1-17.3,2-18.3,6.2c1.2-0.1,2.3-0.1,3.5,0c8.6,0.5,15.5,2.6,21.3,6.2c-5.7,3.1-12.9,2.6-21.6-1.2c3.1,5.4,7.8,9.4,14.2,11.5
	c1.4-2.2,3.7-3.6,6.8-4.2c0-0.1,0-0.1,0.2,0c0.3-0.2,0.7-0.2,1-0.2c-0.4,0.3-0.8,0.8-1.1,1.3c-0.1,0.2-0.4,0.3-0.4,0.3
	c-1.1,1.3-1.8,2.7-2.1,3.9c0.5,0.1,0.9,0.2,1.6,0.3c0.2,0.1,0.3,0.1,0.5,0.1c3.7,0.4,7.8,0.4,12.3,0c-5.5,1.1-9.9,2.6-13.3,4.5
	c0.5,0.2,0.8,0.7,1.3,1c3.8,2.9,7.9,2.8,12.4-0.7c4.5-3.4,6.5-7.8,6.3-13.6c-4.7-2.3-8.8-5.2-12.8-8.8c-0.2,0-0.2,0-0.2,0
	c-2.9-2.8-5.7-5.9-8.3-9.5c-0.7-1-1.6-2.2-2.2-3.3c9.1,7.7,15.5,7.8,19.1,0.4c2.5-11,11.3-18.5,26.5-22.4l0,0
	c-11.6,0.7-19.8-3-25-11.3c-1.6-5.4,0.9-9.8,6.9-13.2c1.3,6.9,5.5,11.6,13.2,13.8c0.4-0.2,1-0.2,1.6-0.3l-1.3-4.7
	c-3.2-4-6.7-7.9-10.1-11.6c-13.7-15.5-24.9-33.1-40.8-48c-7.1-6.8-19.5-9.7-28.3-14.6C228.7,144,220.7,140.4,216.1,136.3z"/>
<path id="path3727" class="st0" d="M187.8,117.8c-18-1-24.7,20.1-14.5,29.7c0.3-9,5.7-15.2,16.8-14
	C198,133.1,195.6,120.5,187.8,117.8z"/>
<path id="path3729" class="st0" d="M181.9,154.5c-17-0.1-30,26.3-11.2,31.5c-1.9-7.1,4.8-21.2,14.2-15.1
	C195,165.8,194.3,154.4,181.9,154.5z"/>
<path id="path3731" class="st0" d="M244.9,292.4c-2.7-1.9-4.5-4.2-5.3-7.5c-1.7,2-2.7,4.5-3.2,7.2c-0.6,5.4,2.9,8.5,10.6,9.7
	C242.8,298.1,242.2,295,244.9,292.4z"/>
<path id="path3735" class="st0" d="M178.7,339.5c-7.6-15.6-47.2,3.1-28.9,20.2c-0.5-6.9,15.3-13,15-4
	C174.9,353.9,182.3,349.1,178.7,339.5z"/>
<path id="path3737" class="st0" d="M147.3,380.2c-20.1,3.8-21.3,25.8-1.6,37c-4.9-10.4,0.7-19.1,12.3-22.1
	C167.4,386.5,157.6,381.6,147.3,380.2z"/>
<path id="path3739" class="st0" d="M176.2,415.8c7.7-4.3,22.5,0.1,18,8c-8,20.9-44,11.5-46-6.3C156.8,422,174.2,420.9,176.2,415.8z"
	/>
<path id="path3741" class="st0" d="M256.4,466.9c-1.1,5.7-0.8,10.3,1.1,13.3c0.6,1,1.4,1.8,2.3,2.5c2,1.5,4.4,2.2,7.6,2.3
	c4.7,0,10.7-1.2,18.3-3.8c-5.4,4.4-10.6,7.3-15.7,8.6c-0.9,0.1-1.7,0.4-2.4,0.4c-4.7,0.7-9.1,0-13.3-1.8c-2.1-0.9-4.2-2.2-6.2-3.5
	c-0.6-0.6-1.2-1.3-2.1-1.8c0.5,0.7,0.9,1.5,1.2,2.2c6.2,11.7,13.3,15.5,21.5,11.6c0-0.1,0-0.1,0-0.3c0.9-0.4,1.7-0.9,2.4-1.2
	c0.3-0.1,0.6-0.3,1.1-0.4c4.1-1.9,8.5-2.5,12.6-1.9c-4.1-0.6-8.5,0-12.6,1.9c-0.5,0.1-0.8,0.3-1.1,0.4c-0.8,0.3-1.5,0.7-2.4,1.2
	c0,0.1,0,0.1,0,0.3c-2.9,8.9-11.5,14.7-25.7,17.1c14.8,5.4,25.9,2.3,33.3-9.2l0.6,0.4c-0.8,3.7-1.8,7.2-3.3,10.4
	c-4.1,9.2-11.2,16.8-20.9,23.1c7.6,1.2,14.1,0.3,19.1-2.5c5.3-2.9,9.4-8.1,11.8-15.2c-0.3,9.1-3.2,16.4-8.5,22.1
	c1.2,1.9,2.6,3.8,4.2,5.4c1.7,1.6,3.5,3.1,5.3,4.4c4.1,2.8,8.8,4.8,14.2,6.4c-6.8,0.4-11.8,0-14.7-1.9c-0.8-0.4-1.2-0.9-1.7-1.2
	c-0.2,0-0.2,0-0.2,0c-0.9-0.6-1.5-1-1.7-1.2c-2.3-0.9-3.8-1.3-4.5-1.6c-0.8-0.1-1.5-0.3-2.6-0.3c-3-0.1-7.6,0.4-13.8,1.8
	c-8,3.4-17.4,5.6-28.6,6.4c-2.6-0.1-4.8-0.7-7-1.8c-2.1-1-4.1-2.5-5.9-4.4c-0.5-6.3-2.3-13.3-5.6-20.8c-1.8-1.3-4.5-1.8-8.2-1.5
	c-1.7-0.3-2.6,0.1-3,1.6c0,0.1,0,0.1,0,0.3c0,0,0,0,0,0.1c6.4,9.4,5.3,13.6-3.6,12.9c-2.1,0.1-5.6,0.7-10.3,1.9
	c-4.8,2.3-6.2,5-4.2,7.9l0.5,0.4c0.3,0.3,0.5,0.7,0.8,1.2c0.2,0.1,0.2,0.1,0.3,0.3c2.1,2.8,5.3,5,9.2,6.6c6,2,14.1,2.6,24.2,1.5
	c-5.7,4.2-14.4,5.3-26.2,2.8c-3.5-1.2-7.7-3.1-12.6-5.9l-2.9,2.6c4.8,5.1,7.4,10.1,8,14.9c-0.6,3.4-2.7,6.3-6.4,8.9
	c0,0.3,0,0.4-0.2,0.6c-1.2,2.9-0.3,5.1,2.4,6.4l7.6-0.1c4.4-2.5,6.5-5.9,6.7-10.1c0.2,4.2,1.2,6.6,2.9,7.2c3.8,0.7,7.3,0.3,10.4-0.7
	c2.9-1.3,5.7-1.5,8.5-0.7c4.4-2.2,7-4.7,8-7.9c-1.1,3.2-3.6,5.7-8,7.9c-2.7-0.7-5.6-0.6-8.5,0.7c-0.9,0.3-1.8,0.9-2.7,1.5l-7.6,6.2
	l2.9,3.5c0,0,0,0,0.2,0c6.7,1.8,11.6,5,14.8,9.7c0.9,2.1,0.8,3.5-0.8,4.4c-0.2,0.1-0.2,0.1-0.2,0.1c-0.5,2,0.8,3.2,3.8,3.8
	c3.3,1.3,6.2,1.6,8.5,0.1c5.1-3.2,8-7.8,8.6-13.5c-2.6-3.8-1.1-8.6,4.8-14.7c-5.9,6-7.4,10.8-4.8,14.7c1.1,1.6,3,4.4,5.6,8.3
	c4.2-7.2,8.2-11.9,11.9-13.9c-3.8,5.1-5.1,10.3-4.2,15.4c0,0,0,0,0,0.1v-0.1c7.1-7.2,15.6-11.1,25.7-12c-3.2,8.8-11,14.7-23.4,17.9
	c-0.2,0-0.2,0-0.3,0.1c2.6,6.6,8.9,8.8,19.4,6.7c7.6-2.8,12.6-7.5,15.3-13.8l0.8,0.1c0.5-4,2.7-7.3,6.4-10.1
	c-3.6,2.8-5.9,6.2-6.4,10.1c-0.2,0.6-0.3,1-0.3,1.6c-1.2,14.8,7.6,21.8,26.2,21.4c0.3,0,0.5,0,0.9,0c-0.3-0.1-0.5-0.1-0.5-0.1
	c-0.2-0.3-0.3-0.3-0.5-0.3c-6.8-3.1-10.3-8.4-9.8-15.5v-0.3c-0.2-4.1,2.4-8.8,7.9-14.1c5.7,7.5,8.9,15.5,9.7,24
	c6.7-9.7,9.1-20.5,7.7-32.5c0.2,0.4,0.2,0.7,0.3,1c0,0.3,0,0.4,0.2,0.7c0.5,1.8,1.1,3.7,1.8,5.4c5.3,12.2,16,18.3,32.1,18.2
	c-9.4-6-16-14.1-20-24c-0.9-0.9-1.8-2-2.7-3.2c0.9,1.2,1.8,2.3,2.7,3.2c5.7,6,13.3,9.1,22.5,9.5c2.4-0.1,4.7-0.6,6.8-1.3
	c3.8-1.6,6.8-4.2,9.1-7.9l-0.3-0.3l0.6-0.7c-0.6,0.4-1.4,0.9-2,1.2c-3.8,2.2-7.1,3.2-9.7,2.9c-9.7-1.3-15.1-7.3-16.3-17.6
	c0.8-8.2,4.7-15.1,11.5-20.7c1.5-1.3,3-2.5,4.8-3.5v-0.3l0.2-0.1c0.8-6,2.3-12.6,4.8-19.8c-1.1,1.8-2.4,3.5-3.9,5.1
	c-0.2,0.1-0.3,0.4-0.5,0.6c-0.2,0.3-0.5,0.4-0.6,0.7c-3.2,2.9-7,5.6-11.5,7.8c-0.2,0.1-0.5,0.1-0.6,0.1c-8.8,2.5-17.7,2-26.2-1
	c-4.5-2.6-8-6.7-10.4-12.5c-0.2-0.6-0.5-1-0.6-1.6c-1.4-4.5-0.6-9.7,2.1-15.2c3.9-4.2,8.9-7,15-8.2c-5.7,5.6-8,11.3-7,17
	c0.3,1.2,0.6,2.5,1.2,3.4c1.5,3.2,4.1,5.4,7.9,6.7c3.3,1,7.3,1,11.5,0c4.8-1.2,8.3-2.9,10.7-5c2.4-2.2,3.5-4.8,3.3-7.9
	c0.2-5.7,0.5-12.9,1.1-21.2c1.1-8.2,3.8-16.6,8.3-24.8c4.5-7.2,10.9-14.4,19.5-21.5c0.5-0.4,0.6-0.7,0.9-1c2.6-2.9,4.1-6.3,4.5-9.8
	c0.5-3.8-0.5-7.9-2.6-12.5c-0.5-3.2-0.6-6.4-0.6-9.5l-1.1-2.3c-18.9,1.3-34.5,7.3-46.7,17.9c-5.3-0.6-10.4-1-15.7-1.3
	c-9.8,0-18.6,2.3-25.9,7c-7.9,8.9-14.7,14.5-20.7,16.7c-0.6,0.1-1.1,0.4-1.7,0.6c-5.3,1.5-10,0.3-13.8-3.2
	c-4.2-3.8-2.9-9.1,4.4-15.7C264.5,455.3,258.6,459.1,256.4,466.9z"/>
<path id="path3743" class="st0" d="M429.3,297.4c1.7-2.9,3.6-5.7,5.9-8.4c-2.9-0.3-5.7-0.9-8.3-1.8l-2.7,0.4
	c-3.8,4.1-9.2,7-16.6,8.6c-3.2,3.8-3.5,7.5-0.6,11.1c5.1,5.6,10.9,8.8,17.8,10C424.9,310.9,426.3,304.1,429.3,297.4z"/>
<path id="path3747" class="st0" d="M380.4,406.2c-1.8,0.7-3,1.6-4.4,2.6c-2.3,1.6-3.8,4.4-4.5,8.4c13.3,0.3,21.3,5.6,24,16
	c0.2,0.1,0.2,0.1,0.2,0.4c0.5-5,1.8-9.4,4.2-13.6c-0.2-0.1,0-0.3,0.2-0.3c-3.9-6.4-8.5-11.3-14.1-14.8
	C383.9,405.2,382.1,405.7,380.4,406.2z"/>
<path id="path3749" class="st0" d="M390.7,656.8c-3.9,0.9-7.4,2.5-10.4,5c-3.3,3.1-5.6,6.4-6.7,10.3c-1.2,4.8-1.2,9.5-0.3,13.9
	c1.8,5.1,5.9,8.6,12.4,10.7c-2.6-4.1-3.3-8.5-2.6-13.8c2.6-5.6,6.5-9.4,11.9-11.1c0.2-0.3,0.3-0.4,0.5-0.7c1.1-2.8,1.4-5.6,0.6-8.6
	C395.1,659.4,393.3,657.5,390.7,656.8z"/>
<path id="path3751" class="st0" d="M426.5,679.6c-2.6-0.1-5.3,0.1-7.9,0.9c-1.5,0.4-2.7,0.9-4.2,1.6c-0.5,5.7,0.2,11.3,2.1,16.7
	c1.7,3.4,3.9,6.2,6.8,8.1c5,1.8,8.8,2.1,11.5,0.7c3.2-1.2,5.4-2.5,7.1-3.8c-4.5,0.4-8-0.7-10.6-3.2c-3.2-3.8-3.5-7.6-1.1-11.4
	l2.4-2.3l1.1-0.7C432,683.6,429.7,681.4,426.5,679.6z"/>
<path id="path3753" class="st0" d="M484.5,668.8c-1.7-1.9-3.5-2.9-5.3-2.9c-2.9,0-5.7,1-8.3,2.8c-2.7,2.5-3.8,5.4-3,8.6
	c2.7,0.7,4.4,2.1,5,4.1c0.9,2.2,1.2,4.2,0.5,6c-1.7,3.4-4.8,5-9.8,4.8c1.1,3.4,4.4,5.1,9.8,5.6c7.9-1.2,11.8-4.2,12.1-9.5
	c0.8-6.3,0.6-12.7-0.8-19.2C484.6,668.9,484.6,668.9,484.5,668.8z"/>
<path id="path3755" class="st0" d="M187.5,550.1c4.7-1.2,8.2-1.8,10.3-1.9c8.9,0.7,10-3.5,3.6-12.9c-0.2-0.1-0.2-0.1-0.3-0.3
	c-0.2,0-0.2-0.3-0.2-0.3c-4.1-3.2-9.2-4.7-15.1-4.2c-8.8,0.7-14.8,2.9-18.1,6.3c-4.1,4-5.7,7.9-4.7,11.9c5.9-4.2,12.6-6.3,19.8-6.3
	c4.7,2.2,6,5,3.9,8.1l2.3-0.9C188.4,549.7,187.9,550,187.5,550.1z"/>
<path id="path3757" class="st0" d="M176.6,567.6c-8.5,2.5-14.1,7.6-16.9,14.9c-1.1,6.4-0.6,12,1.2,16.7c3.2,5.1,7.6,7.6,12.9,7.8
	c-2.4-2.8-3.5-6.3-2.9-10.8c1.4-2.9,3.8-4.4,7.3-4.1c0.2-0.1,0.2-0.3,0.2-0.6c3.6-2.6,5.7-5.6,6.4-8.9
	C184,577.7,181.4,572.7,176.6,567.6z"/>
<path id="path3759" class="st0" d="M200.8,605.8c-0.2,0-0.2,0-0.2,0c-5.1,6-7.7,12.7-7.9,20.4c1.1,11,7.7,14.9,20.1,11.7
	c-5.3-3.2-7.6-7.9-6.7-13.9c1.8-3.7,4.5-5.1,8.3-4c0.2,0,0.2,0,0.2,0c0-0.1,0-0.1,0.2-0.1c1.5-0.9,1.7-2.3,0.8-4.4
	C212.4,610.8,207.4,607.6,200.8,605.8z"/>
<path id="path3761" class="st1" d="M593.1,242l-0.2,0.4L593.1,242L593.1,242z"/>
<path id="path13163" class="st0" d="M534.1,431.7c-11.3-8.4-27.1-14.5-32.5-28.3c-1.8-6.3-3.1-15.4-1.8-21.9c1.3-6.5,5-15.2,10-19.5
	c5.1-4.4,14.6-6.7,21.3-7.1c6-0.3,14.6,0.8,19.5,4.1c3.2,2.2,6.4,6.9,7.1,10.6c0.6,3.2-0.4,8-2.4,10.6c-2.2,2.9-7,5.3-10.6,5.9
	c-2.8,0.5-9.5-1.8-9.5-1.8l-3.5-3.5c0,0,0.8,5.9,2.4,7.7c2.3,2.6,7.2,4.2,10.6,4.7c3.7,0.5,8.9-0.5,12.4-1.8c4-1.5,9.4-4.2,11.8-7.7
	c2.5-3.6,3.9-9.8,3.5-14.2c-0.3-3.5-2.8-7.8-4.7-10.6c-1.6-2.3-6.5-6.5-6.5-6.5s7.9,2.4,11.2,1.8c1.8-0.3,5.4-1.1,5.3-3
	c-0.4-6.7-20.7-8.3-20.7-8.3s10.8-0.3,14.8-2.4c3.7-1.9,7.9-6.2,9.5-10c1.2-3,0.4-7.5,0-10.6c-0.3-2.2-0.6-5.2-1.8-7.1
	c-1.2-2-3.8-4.1-5.9-5.3c-2.6-1.5-9.5-3-9.5-3s6.4,3.8,7.7,6.5c1.2,2.6,0.9,6.8,0,9.5c-0.6,1.7-2.3,3.5-3.5,4.7
	c-1.6,1.6-3.9,3.7-5.9,4.7c-2.3,1.2-5.8,1.8-8.3,2.4c-2.3,0.5-5.4,1.2-7.7,1.2c-3.8-0.1-8.6-2.3-12.4-2.4c-3.2,0-7.7,0.4-10.6,1.8
	c-3.4,1.6-9.5,8.3-9.5,8.3s2.3-8.8,4.7-11.8c2.6-3.2,8.2-5,11.2-7.7c2.6-2.3,5.6-6,7.7-8.9c3.1-4.3,6.6-10.5,8.9-15.4
	c5.4-11.6,11.6-27.7,14.8-40.2c2.5-9.9,4.5-23.5,4.7-33.7c0.3-13.9-1.6-32.5-4.1-46.1c-1.6-8.7-4.4-20.4-8.3-28.4
	c-3.3-6.9-12-13.6-14.8-20.7c-1.1-3-1.7-7.5-1.2-10.6c0.5-2.9,2.3-6.6,4.1-8.9c1.5-1.9,4.2-4,6.5-4.7c2.4-0.8,6-1,8.3,0
	c1.7,0.8,3.5,3,4.1,4.7c0.6,1.5,0.8,3.9,0,5.3c-1.1,2-6.5,4.1-6.5,4.1s9,0.5,11.8-1.8c2.8-2.3,4.5-7.7,4.1-11.2
	c-0.4-4.4-4.2-9.7-7.7-12.4c-4-3.1-10.9-5-16-5.3c-4-0.3-9.4,0.7-13,2.4c-4,1.9-8.6,5.9-11.2,9.5c-2.6,3.4-6.4,8.7-5.9,13
	c0.5,4.7,9.5,12.4,9.5,12.4s-6.8-10.6-11.2-13.6c-2.5-1.7-6.5-2.5-9.5-3c-2.6-0.4-6.2-0.3-8.9,0c-3.8,0.4-8.6,3.3-12.4,3
	c-4.2-0.3-9.5-3-13-5.3c-3.1-2.1-7.3-5.5-8.9-8.9c-1.6-3.4-2.2-8.8-1.2-12.4c0.8-2.9,3.3-6.7,5.9-8.3c3.1-1.8,8.3-1.8,11.8-1.2
	c2.9,0.5,6.8,2.1,8.9,4.1c1.5,1.5,3,6.5,3,6.5s2.7-6.3,1.8-8.9c-1.2-3.4-6.1-6.3-9.5-7.7c-3.8-1.5-9.6-2.1-13.6-1.2
	c-4,0.9-8.7,4.3-11.8,7.1c-2.2,1.9-4.6,5.1-5.9,7.7c-1.6,3.3-2.7,8.2-3,11.8c-0.2,3.2,0.4,7.5,1.2,10.6c0.8,3.5,2.4,8.1,4.1,11.2
	c1.6,2.9,4.1,6.6,6.5,8.9c2.5,2.3,6.3,4.9,9.5,5.9c4.6,1.5,11.2,1,16,1.2c3.7,0.1,8.8-0.7,12.4,0c2.3,0.5,7.1,3,7.1,3
	s-4.7-2.1-6.9-2.5c-4-0.8-9.2-0.4-13.2,0.7c-3.9,1.1-9.1,2.9-12.4,5.3c-5,3.6-10.3,10.2-13.6,15.4c-1.9,3.1-4,7.6-4.7,11.2
	c-0.7,3.3-0.2,7.9,0,11.2c0.2,3.7,0,8.9,1.2,12.4c1.3,3.8,4.5,8.2,7.1,11.2c3.4,3.9,9,8,13,11.2c2.3,1.8,5.6,3.8,7.7,5.9
	c1.2,1.3,3.7,3,3.5,4.7c-0.1,1-1.6,1.8-2.4,2.4c-2.3,1.6-8.3,4.1-8.3,4.1s8.1-0.5,11.2-1.8c2.4-0.9,5.7-2.6,7.1-4.7
	c1-1.5,1.6-4.1,1.2-5.9c-0.4-2.1-2.7-4.3-4.1-5.9c-1.3-1.4-4.7-4.1-4.7-4.1s7.3,3,10.6,3.5c1.7,0.3,4.2,0.6,5.9,0
	c2.1-0.8,4.3-3.1,5.9-4.7c1.7-1.7,4.3-4.1,4.7-6.5c0.6-2.9-1.4-6.7-2.4-9.5c-0.7-2-3-6.5-3-6.5s0.6,6.3,0,8.9
	c-0.5,2.5-1.6,6-3.5,7.7c-1.4,1.2-4.1,1.7-5.9,1.8c-2.5,0.1-5.9-0.8-8.3-1.8c-3.5-1.5-8-4.3-10.6-7.1c-2.3-2.4-5.2-6.2-5.9-9.5
	c-0.9-4,0.3-9.8,1.8-13.6c1.5-3.7,4.6-8.2,7.7-10.6c3.2-2.5,8.4-4.5,12.4-5.3c3.1-0.6,7.5-0.7,10.6,0c4.7,1,10.7,3.9,14.8,6.5
	c4.4,2.9,9.8,7.6,13,11.8c3.9,5.2,7.8,13.2,9.5,19.5c2.6,10,2.4,24,1.8,34.3c-0.6,9.5-5.3,31.3-5.3,31.3s-4.2-12.1-8.3-15.4
	c-2.9-2.3-8.1-3.3-11.8-3.5c-4-0.2-9.6,0.4-13,2.4c-2.8,1.6-6,5.2-7.1,8.3c-0.4,1.2-0.7,3.1,0,4.1c0.7,1.1,2.9,1.3,4.1,1.8
	c1.9,0.7,6.5,1.8,6.5,1.8s-4.9-3.6-4.7-5.9c0.1-1.8,2.6-3.4,4.1-4.1c1.4-0.7,3.7-0.6,5.3-0.6c2,0.1,4.7,0.3,6.5,1.2
	c2.6,1.3,5.6,4,7.1,6.5c1.9,3.3,2.9,8.6,3,12.4c0.1,5.6-1.6,13.1-3.5,18.3c-3.2,9-9.7,20.1-15.4,27.8c-3,4.1-9,8.1-11.8,12.4
	c-4.1,6.1-10,22.5-10,22.5s-0.6-7.2-1.8-10c-1.8-4.1-5.6-8.8-8.9-11.8c-2.5-2.3-6.5-4.4-9.5-5.9c-2.6-1.3-6.7-1.7-8.9-3.5
	c-1.6-1.3-3.1-3.9-3.5-5.9c-0.4-1.7,0-4.2,0.6-5.9c0.4-1.4,2.4-4.1,2.4-4.1s-6.3,4.1-8.3,6.5c-1.3,1.5-2.7,3.9-3,5.9
	c-0.4,3.2,1.2,7.6,2.4,10.6c1.3,3.3,3.9,7.2,5.9,10c2.5,3.5,9.5,10.6,9.5,10.6s4.3,0.4,5.9,1.2c2.9,1.4,8.3,7.1,8.3,7.1
	s-4.4-5.8-7.1-7.1c-2.7-1.3-7.1-1.7-10-1.2c-2.3,0.4-5.5,1.8-7.1,3.5c-1.7,2-3,8.3-3,8.3s6.5-2.7,9.5-3c1.6-0.2,3.9-0.2,5.3,0.6
	c1.4,0.8,3,2.6,3.5,4.1c0.6,1.5-0.1,3.7,0,5.3c0.3,6,0.7,14.1,1.8,20.1c1,5.4,2.7,12.6,4.7,17.7c3.2,14,12.4,22.6,23.9,30.6
	c5.1,3.1,9.5,6.3,9.5,6.3S538.1,434.3,534.1,431.7z"/>
<g id="layer15">
</g>
</svg>
