<svg id="Calque_1" data-name="Calque 1" xmlns="http://www.w3.org/2000/svg" width="495.33" height="183.5" viewBox="0 0 495.33 183.5">
  <defs>
    <style>
      .cls-1 {
        fill: #1a1a1a;
        stroke: #1a1a1a;
        stroke-width: 4px;
      }

      .cls-1, .cls-6 {
        stroke-miterlimit: 10;
      }

      .cls-2 {
        fill: #ffce4c;
      }

      .cls-3 {
        opacity: 0.08;
      }

      .cls-4 {
        fill: #c1272d;
      }

      .cls-5 {
        fill: #fff;
        opacity: 0.29;
      }

      .cls-6 {
        fill: none;
        stroke: #ffce4c;
        stroke-linecap: round;
        stroke-width: 2px;
      }
    </style>
  </defs>
  <title>stars</title>
  <path class="cls-1" d="M358.46,128.5l7.9,12.89a1,1,0,0,0,1,.45l14.83-2.93a1,1,0,0,1,.93,1.58L373.32,152a1,1,0,0,0-.11,1.11l7.37,13.2a1,1,0,0,1-1.22,1.37l-14-5.78a1,1,0,0,0-1.08.24L354,173.21a1,1,0,0,1-1.68-.74l1.18-15.07a1,1,0,0,0-.56-1l-13.72-6.35a1,1,0,0,1,.18-1.83l14.7-3.53a1,1,0,0,0,.74-0.83l1.8-15A1,1,0,0,1,358.46,128.5Z"/>
  <path class="cls-1" d="M226.14,75.28l15.11-.44a1,1,0,0,0,.89-0.66L247,59.85a1,1,0,0,1,1.84,0l5.09,14.24a1,1,0,0,0,.9.64l15.12,0.17a1,1,0,0,1,.58,1.74l-12,9.24a1,1,0,0,0-.33,1.06l4.51,14.43a1,1,0,0,1-1.48,1.09l-12.49-8.53a1,1,0,0,0-1.11,0l-12.33,8.75a1,1,0,0,1-1.5-1.07l4.25-14.51a1,1,0,0,0-.35-1.05l-12.13-9A1,1,0,0,1,226.14,75.28Z"/>
  <path class="cls-1" d="M300.5,81.38l13.19,7.4a1,1,0,0,0,1.11-.11l11.52-9.79a1,1,0,0,1,1.58.93l-3,14.83a1,1,0,0,0,.44,1l12.87,7.93a1,1,0,0,1-.4,1.79l-15,1.77a1,1,0,0,0-.83.74l-3.56,14.69a1,1,0,0,1-1.83.18L310.29,109a1,1,0,0,0-1-.56l-15.08,1.15a1,1,0,0,1-.73-1.68l11.11-10.25a1,1,0,0,0,.24-1.08l-5.75-14A1,1,0,0,1,300.5,81.38Z"/>
  <path class="cls-1" d="M156.36,105.35l12.9-7.88a1,1,0,0,0,.45-1L166.8,81.62a1,1,0,0,1,1.59-.93l11.48,9.84a1,1,0,0,0,1.1.11l13.21-7.35a1,1,0,0,1,1.37,1.22l-5.81,14a1,1,0,0,0,.24,1.09l11.07,10.3a1,1,0,0,1-.74,1.68l-15.07-1.21a1,1,0,0,0-1,.56l-6.37,13.71a1,1,0,0,1-1.83-.18l-3.51-14.71a1,1,0,0,0-.83-0.74l-15-1.82A1,1,0,0,1,156.36,105.35Z"/>
  <path class="cls-1" d="M111.74,138.82l14.8,3.08a1,1,0,0,0,1-.44l8-12.81a1,1,0,0,1,1.79.41l1.64,15a1,1,0,0,0,.73.84l14.67,3.68a1,1,0,0,1,.16,1.83l-13.79,6.21a1,1,0,0,0-.57,1l1,15.09a1,1,0,0,1-1.69.72l-10.16-11.19a1,1,0,0,0-1.08-.25l-14,5.64a1,1,0,0,1-1.21-1.38l7.51-13.13a1,1,0,0,0-.1-1.11l-9.7-11.6A1,1,0,0,1,111.74,138.82Z"/>
  <path class="cls-2" d="M383.11,140.38l-9.75,11.56a1,1,0,0,0-.1,1.11l7.45,13.16a1,1,0,0,1-1.21,1.38l-14-5.7a1,1,0,0,0-1.08.24L354.2,173.27a1,1,0,0,1-1.69-.73l1.09-15.08a1,1,0,0,0-.57-1l-13.76-6.27a1,1,0,0,1,.17-1.83l14.68-3.62a1,1,0,0,0,.73-0.83l1.71-15a1,1,0,0,1,1.79-.4l8,12.84a1,1,0,0,0,1,.44l14.82-3A1,1,0,0,1,383.11,140.38Z"/>
  <path class="cls-2" d="M249,59.9l5,14.28a1,1,0,0,0,.9.65l15.12,0.31a1,1,0,0,1,.57,1.75l-12,9.13a1,1,0,0,0-.34,1.06l4.38,14.47a1,1,0,0,1-1.49,1.08L248.6,94a1,1,0,0,0-1.11,0l-12.41,8.64a1,1,0,0,1-1.49-1.08L238,87.08a1,1,0,0,0-.34-1.06l-12-9.13a1,1,0,0,1,.57-1.75l15.12-.31a1,1,0,0,0,.9-0.65l5-14.28A1,1,0,0,1,249,59.9Z"/>
  <path class="cls-2" d="M111.76,138.84l14.8,3.08a1,1,0,0,0,1-.44l8-12.81a1,1,0,0,1,1.79.41l1.64,15a1,1,0,0,0,.73.84l14.67,3.68a1,1,0,0,1,.16,1.83l-13.79,6.21a1,1,0,0,0-.57,1l1,15.09a1,1,0,0,1-1.69.72l-10.16-11.19a1,1,0,0,0-1.08-.25l-14,5.64a1,1,0,0,1-1.21-1.38l7.51-13.13a1,1,0,0,0-.1-1.11l-9.7-11.6A1,1,0,0,1,111.76,138.84Z"/>
  <path class="cls-2" d="M168.33,80.92l11.5,9.81a1,1,0,0,0,1.11.11l13.2-7.38a1,1,0,0,1,1.37,1.22l-5.78,14a1,1,0,0,0,.24,1.08L201.07,110a1,1,0,0,1-.74,1.68l-15.07-1.18a1,1,0,0,0-1,.56L178,124.81a1,1,0,0,1-1.83-.18l-3.54-14.7a1,1,0,0,0-.83-0.74l-15-1.79a1,1,0,0,1-.39-1.79l12.89-7.91a1,1,0,0,0,.45-1l-2.94-14.83A1,1,0,0,1,168.33,80.92Z"/>
  <path class="cls-2" d="M327.87,79.81l-3,14.83a1,1,0,0,0,.44,1l12.88,7.92a1,1,0,0,1-.4,1.79l-15,1.78a1,1,0,0,0-.83.74l-3.55,14.7a1,1,0,0,1-1.83.18L310.29,109a1,1,0,0,0-1-.56l-15.08,1.16a1,1,0,0,1-.73-1.68l11.1-10.26a1,1,0,0,0,.24-1.08l-5.76-14a1,1,0,0,1,1.37-1.22l13.19,7.39a1,1,0,0,0,1.11-.11l11.51-9.8A1,1,0,0,1,327.87,79.81Z"/>
  <g class="cls-3">
    <g>
      <path class="cls-4" d="M201.07,110a1,1,0,0,1,.24,1.07l-22.68-9.47,11.05-2.4a1,1,0,0,0,.29.53Z"/>
      <path class="cls-2" d="M178.63,101.61l22.68,9.47a1,1,0,0,1-1,.62l-15.07-1.18a0.93,0.93,0,0,0-.68.22Z"/>
      <path class="cls-2" d="M195.22,83.56a0.92,0.92,0,0,1,.29,1.12l-5.77,14a1,1,0,0,0-.06.55l-11.05,2.4Z"/>
      <path class="cls-4" d="M195.22,83.56l-16.59,18L180.39,91a1,1,0,0,0,.55-0.12l13.2-7.38A0.94,0.94,0,0,1,195.22,83.56Z"/>
      <path class="cls-4" d="M178.63,101.61l6,9.13a0.86,0.86,0,0,0-.28.34L178,124.81a1,1,0,0,1-1.07.54Z"/>
      <path class="cls-2" d="M180.39,91l-1.76,10.65-11.4-20.8a0.94,0.94,0,0,1,1.1.11l11.51,9.81A1.07,1.07,0,0,0,180.39,91Z"/>
      <path class="cls-4" d="M167.23,80.81l11.4,20.8-9-4.28a1,1,0,0,0,.1-0.65l-2.94-14.84A0.94,0.94,0,0,1,167.23,80.81Z"/>
      <path class="cls-2" d="M178.63,101.61l-1.74,23.74a0.92,0.92,0,0,1-.76-0.72l-3.54-14.71a1,1,0,0,0-.4-0.57Z"/>
      <path class="cls-4" d="M178.63,101.61l-6.44,7.74a1,1,0,0,0-.43-0.16l-15-1.79a1,1,0,0,1-.83-0.74Z"/>
      <path class="cls-2" d="M178.63,101.61l-22.71,5a0.94,0.94,0,0,1,.43-1.06l12.89-7.91a0.93,0.93,0,0,0,.35-0.36Z"/>
    </g>
  </g>
  <g class="cls-3">
    <g>
      <path class="cls-4" d="M154.4,148.5a1,1,0,0,1,.72.83l-24.45,2.46,8.58-7.37a1,1,0,0,0,.51.33Z"/>
      <path class="cls-2" d="M154.55,150.34l-13.82,6.13a0.93,0.93,0,0,0-.49.52l-9.58-5.2,24.45-2.46A1,1,0,0,1,154.55,150.34Z"/>
      <path class="cls-2" d="M130.66,151.79l6-23.77a0.92,0.92,0,0,1,.79.85l1.58,15a1,1,0,0,0,.21.51Z"/>
      <path class="cls-4" d="M136.67,128l-6,23.77-3.52-10.2a1,1,0,0,0,.43-0.37l8.1-12.77A0.94,0.94,0,0,1,136.67,128Z"/>
      <path class="cls-2" d="M130.66,151.79l9.77,21.71a0.92,0.92,0,0,1-1-.27L129.3,162a1,1,0,0,0-.62-0.31Z"/>
      <path class="cls-4" d="M130.66,151.79l-2,9.87a1,1,0,0,0-.45.06l-14.05,5.57a1,1,0,0,1-1.08-.26Z"/>
      <path class="cls-4" d="M140.43,173.5l-9.77-21.71,9.58,5.2a0.86,0.86,0,0,0-.08.43l1,15.09A1,1,0,0,1,140.43,173.5Z"/>
      <path class="cls-4" d="M110.74,138.92l19.92,12.87-10,.54a1,1,0,0,0-.22-0.62l-9.65-11.65A0.94,0.94,0,0,1,110.74,138.92Z"/>
      <path class="cls-2" d="M111.76,138.5l14.79,3.15a1.07,1.07,0,0,0,.59-0.06l3.52,10.2-19.92-12.87A0.94,0.94,0,0,1,111.76,138.5Z"/>
      <path class="cls-2" d="M130.66,151.79L113.09,167a0.94,0.94,0,0,1-.13-1.14l7.57-13.09a0.93,0.93,0,0,0,.14-0.48Z"/>
    </g>
  </g>
  <ellipse class="cls-5" cx="133.03" cy="143.27" rx="2.59" ry="5.06"/>
  <ellipse class="cls-5" cx="174.16" cy="95.92" rx="2.59" ry="5.06"/>
  <g class="cls-3">
    <g>
      <path class="cls-4" d="M337.92,103.74a1,1,0,0,1,.44,1l-24.08-4.93,10.38-4.48a1,1,0,0,0,.39.46Z"/>
      <path class="cls-2" d="M314.28,99.82l24.08,4.93a1,1,0,0,1-.84.8l-15,1.74a0.93,0.93,0,0,0-.62.35Z"/>
      <path class="cls-2" d="M314.28,99.82l12.81-20.91a0.92,0.92,0,0,1,.5,1l-3,14.83a1,1,0,0,0,0,.55Z"/>
      <path class="cls-4" d="M326,79a0.94,0.94,0,0,1,1.08-.11L314.28,99.82,314,89a1,1,0,0,0,.52-0.22Z"/>
      <path class="cls-2" d="M314.28,99.82l2.86,23.63a0.92,0.92,0,0,1-.88-0.56L310,109.14a1,1,0,0,0-.5-0.48Z"/>
      <path class="cls-4" d="M314.28,99.82l-4.83,8.83a1,1,0,0,0-.45-0.07l-15.07,1.13a1,1,0,0,1-1-.57Z"/>
      <path class="cls-4" d="M317.14,123.45l-2.86-23.63,7.6,7.81a0.86,0.86,0,0,0-.21.39l-3.58,14.69A1,1,0,0,1,317.14,123.45Z"/>
      <path class="cls-2" d="M300.19,81.5l13.18,7.41A1.07,1.07,0,0,0,314,89l0.32,10.79L299.09,81.6A0.94,0.94,0,0,1,300.19,81.5Z"/>
      <path class="cls-4" d="M299.09,81.6l15.19,18.22-9.69-2.46a1,1,0,0,0,0-.66l-5.74-14A0.94,0.94,0,0,1,299.09,81.6Z"/>
      <path class="cls-2" d="M314.28,99.82L293,109.14a0.94,0.94,0,0,1,.22-1.12l11.13-10.24a0.93,0.93,0,0,0,.27-0.42Z"/>
    </g>
  </g>
  <g class="cls-3">
    <g>
      <path class="cls-4" d="M380.33,166.79a1,1,0,0,1-.11,1.09l-18.6-16.07L372.87,153a1,1,0,0,0,.11.59Z"/>
      <path class="cls-2" d="M361.63,151.82l18.6,16.07a1,1,0,0,1-1.12.28l-14-5.82a0.93,0.93,0,0,0-.71,0Z"/>
      <path class="cls-2" d="M383,139.83a0.92,0.92,0,0,1-.07,1.15l-9.84,11.49a1,1,0,0,0-.23.5l-11.25-1.16Z"/>
      <path class="cls-4" d="M383,139.83l-21.39,12,5-9.57a1,1,0,0,0,.56.06L382,139.4A0.94,0.94,0,0,1,383,139.83Z"/>
      <path class="cls-4" d="M361.63,151.82l2.81,10.53a0.86,0.86,0,0,0-.37.24l-10.3,11.07a1,1,0,0,1-1.18.18Z"/>
      <path class="cls-2" d="M366.62,142.24l-5,9.57-4.35-23.32a0.94,0.94,0,0,1,1,.45l7.88,12.91A1.07,1.07,0,0,0,366.62,142.24Z"/>
      <path class="cls-4" d="M357.28,128.5l4.35,23.32-7.26-6.88a1,1,0,0,0,.3-0.59l1.83-15A0.94,0.94,0,0,1,357.28,128.5Z"/>
      <path class="cls-2" d="M361.63,151.82l-9.05,22a0.92,0.92,0,0,1-.5-0.92l1.22-15.08a1,1,0,0,0-.2-0.67Z"/>
      <path class="cls-4" d="M361.63,151.82l-8.53,5.35a1,1,0,0,0-.36-0.29L339,150.5a1,1,0,0,1-.56-1Z"/>
      <path class="cls-2" d="M361.63,151.82l-23.15-2.28a0.94,0.94,0,0,1,.74-0.87l14.71-3.5a0.93,0.93,0,0,0,.44-0.23Z"/>
    </g>
  </g>
  <g class="cls-3">
    <g>
      <path class="cls-4" d="M269.8,74.51a1,1,0,0,1,.9.63l-23.17,8.21,6.58-9.2a1,1,0,0,0,.57.2Z"/>
      <path class="cls-2" d="M247.53,83.36l23.17-8.21a1,1,0,0,1-.31,1.12l-12,9.24a0.93,0.93,0,0,0-.36.62Z"/>
      <path class="cls-2" d="M247.7,58.84a0.92,0.92,0,0,1,1,.64l5.11,14.23a1,1,0,0,0,.32.45l-6.58,9.2Z"/>
      <path class="cls-4" d="M247.7,58.84l-0.17,24.52-5.85-9.07a1,1,0,0,0,.33-0.46l4.83-14.33A0.94,0.94,0,0,1,247.7,58.84Z"/>
      <path class="cls-4" d="M247.53,83.36l10.54,2.77a0.86,0.86,0,0,0,0,.44L262.61,101a1,1,0,0,1-.43,1.12Z"/>
      <path class="cls-2" d="M241.68,74.28l5.85,9.07L225.12,75.6a0.94,0.94,0,0,1,.89-0.66l15.12-.46A1.07,1.07,0,0,0,241.68,74.28Z"/>
      <path class="cls-4" d="M225.12,75.6l22.41,7.76L238,86.25a1,1,0,0,0-.36-0.55l-12.14-9A0.94,0.94,0,0,1,225.12,75.6Z"/>
      <path class="cls-2" d="M247.53,83.36l14.65,18.76a0.92,0.92,0,0,1-1,0l-12.5-8.52a1,1,0,0,0-.68-0.15Z"/>
      <path class="cls-4" d="M247.53,83.36L248,93.42a1,1,0,0,0-.43.17l-12.33,8.75a1,1,0,0,1-1.11,0Z"/>
      <path class="cls-2" d="M247.53,83.36l-13.44,19a0.94,0.94,0,0,1-.39-1.07l4.24-14.52a0.93,0.93,0,0,0,0-.5Z"/>
    </g>
  </g>
  <ellipse class="cls-5" cx="317.33" cy="95.67" rx="2.59" ry="5.06"/>
  <ellipse class="cls-5" cx="245.94" cy="78.64" rx="2.59" ry="5.06"/>
  <ellipse class="cls-5" cx="366.3" cy="149.08" rx="2.59" ry="5.06"/>
  <line class="cls-6" x1="205.61" y1="20.39" x2="219.98" y2="44.05"/>
  <line class="cls-6" x1="245.94" y1="35.94" x2="245.94" y2="22.94"/>
  <line class="cls-6" x1="288.93" y1="20.39" x2="274.57" y2="44.05"/>
</svg>
